<svg width="290" height="230" viewBox="0 0 290 230" fill="none" xmlns="http://www.w3.org/2000/svg">
<rect x="0.5" y="0.5" width="289" height="229" rx="19.5" fill="#F9F9F9" stroke="#AAAAAA"/>
<path fill-rule="evenodd" clip-rule="evenodd" d="M265.329 64.1769C267.454 65.4914 269.389 67.1733 270.899 69.2758C275.917 76.2488 276.23 85.4566 272.385 92.5587C230.966 169.4 185.573 205.937 130.99 216.125C118.386 218.495 105.415 216.016 94.2792 209.105C75.9011 197.706 40.8659 175.969 19.7333 162.851C17.3162 161.354 15.5109 158.792 15.1041 155.775C14.3657 150.332 17.6417 145.584 22.2106 144.617C75.6751 133.254 124.516 98.4754 165.046 21.6373C169.365 13.4261 178.891 10.5786 186.405 15.2372C206.549 27.6997 243.871 50.8634 265.329 64.1736" fill="white"/>
<path fill-rule="evenodd" clip-rule="evenodd" d="M265.329 64.1769C267.454 65.4914 269.389 67.1733 270.899 69.2758C275.917 76.2488 276.23 85.4566 272.385 92.5587C230.966 169.4 185.573 205.937 130.99 216.125C118.386 218.495 105.415 216.016 94.2792 209.106C75.9011 197.706 40.8659 175.969 19.7333 162.851C17.3162 161.354 15.5109 158.792 15.1041 155.775C14.3657 150.332 17.6417 145.584 22.2106 144.617C75.6751 133.254 124.516 98.4754 165.046 21.6373C169.365 13.4261 178.891 10.5786 186.405 15.2372C206.549 27.6997 243.871 50.8634 265.329 64.1736V64.1769Z" stroke="#484848" stroke-width="1.5"/>
<path fill-rule="evenodd" clip-rule="evenodd" d="M224.255 38.6855C176.04 139.101 121.765 179.144 54.7987 184.614L24.1154 165.569C91.0846 160.106 152.041 124.202 200.253 23.7927L224.255 38.6855Z" fill="#484848"/>
<path fill-rule="evenodd" clip-rule="evenodd" d="M134.534 190.041L133.651 182.399L144.016 188.829L134.534 190.041ZM159.937 172.552L159.063 164.91L169.422 171.34L159.937 172.552ZM192.251 143.968L191.374 136.327L201.732 142.757L192.251 143.968ZM221.949 108.465L221.072 100.823L231.43 107.253L221.949 108.465ZM148.238 174.661C146.74 173.579 144.742 174.128 143.868 175.82C143.003 177.505 143.609 179.671 145.224 180.522L152.765 185.197C154.268 186.296 156.273 185.75 157.144 184.055C158.018 182.359 157.409 180.187 155.775 179.34L148.238 174.661V174.661ZM174.006 155.577C172.505 154.497 170.51 155.047 169.648 156.736C168.78 158.424 169.377 160.583 170.995 161.437L178.56 166.129C180.057 167.208 182.049 166.659 182.917 164.97C183.785 163.281 183.186 161.129 181.57 160.272C179.467 158.967 176.106 156.885 174.006 155.577V155.577ZM205.057 125.053C203.556 123.973 201.567 124.523 200.699 126.212C199.831 127.9 200.428 130.056 202.046 130.913C204.147 132.211 207.507 134.297 209.611 135.602C211.108 136.684 213.1 136.135 213.971 134.446C214.836 132.757 214.237 130.599 212.621 129.744L205.057 125.053V125.053ZM214.812 113.226C213.336 112.312 211.467 112.882 210.632 114.504L210.629 114.507C209.797 116.13 210.319 118.186 211.792 119.1L219.719 124.02C221.196 124.934 223.064 124.364 223.902 122.742C224.737 121.119 224.215 119.066 222.742 118.146L214.812 113.226V113.226Z" stroke="#484848" stroke-width="1.5" stroke-linecap="round" stroke-linejoin="round"/>
<circle cx="30" cy="30" r="10" fill="#484848"/>
<circle cx="90" cy="40" r="19.5" stroke="#484848"/>
<circle cx="35" cy="85" r="14.5" stroke="#484848"/>
</svg>
