<svg width="290" height="230" viewBox="0 0 290 230" fill="none" xmlns="http://www.w3.org/2000/svg">
<rect x="0.5" y="0.5" width="289" height="229" rx="19.5" fill="#F9F9F9" stroke="#AAAAAA"/>
<path fill-rule="evenodd" clip-rule="evenodd" d="M110.571 70.9141H258.885L262.985 193.22C263.47 207.777 251.88 219.847 237.41 219.847H132.043C117.57 219.847 105.98 207.777 106.468 193.22L110.568 70.9141H110.571Z" fill="#484848"/>
<path fill-rule="evenodd" clip-rule="evenodd" d="M110.571 70.9141H258.885L262.985 193.22C263.47 207.777 251.88 219.847 237.41 219.847H132.043C117.57 219.847 105.98 207.777 106.468 193.22L110.568 70.9141H110.571Z" stroke="#484848" stroke-width="1.5" stroke-linecap="round" stroke-linejoin="round"/>
<path fill-rule="evenodd" clip-rule="evenodd" d="M91.7204 70.9141H240.035L244.135 193.22C244.622 207.777 233.029 219.847 218.559 219.847H113.196C98.7229 219.847 87.1328 207.777 87.6171 193.22L91.7204 70.9141Z" fill="white"/>
<path fill-rule="evenodd" clip-rule="evenodd" d="M91.7204 70.9141H240.035L244.135 193.22C244.622 207.777 233.029 219.847 218.559 219.847H113.196C98.7229 219.847 87.1328 207.777 87.6171 193.22L91.7204 70.9141V70.9141Z" stroke="#484848" stroke-width="1.5" stroke-linecap="round" stroke-linejoin="round"/>
<path d="M200.364 70.9142C200.364 51.7134 184.757 35.9998 165.677 35.9998C146.604 35.9998 130.994 51.7134 130.994 70.9142" stroke="#484848" stroke-width="1.5" stroke-linecap="round" stroke-linejoin="round"/>
<path d="M198.807 112.208L132.947 178.508M225.293 70.9142C225.293 54.2418 211.744 40.6082 195.185 40.6082C192.176 40.6082 189.267 41.0567 186.52 41.8952L225.293 70.9142Z" stroke="#484848" stroke-width="1.5" stroke-linecap="round" stroke-linejoin="round"/>
<path fill-rule="evenodd" clip-rule="evenodd" d="M126.484 119.063C126.484 125.569 131.724 130.844 138.187 130.844C144.644 130.844 149.89 125.569 149.89 119.063C149.89 112.556 144.647 107.285 138.187 107.285C131.724 107.285 126.484 112.556 126.484 119.063ZM205.271 171.914C205.271 165.407 200.031 160.136 193.568 160.136C187.104 160.136 181.865 165.407 181.865 171.914C181.865 178.42 187.104 183.695 193.568 183.695C200.031 183.695 205.271 178.42 205.271 171.914Z" fill="#484848"/>
<path fill-rule="evenodd" clip-rule="evenodd" d="M233.345 21.9046C233.345 15.4242 228.128 10.1722 221.691 10.1722C215.253 10.1722 210.036 15.4242 210.036 21.9046C210.036 28.3851 215.253 33.637 221.691 33.637C228.128 33.637 233.345 28.3851 233.345 21.9046V21.9046Z" stroke="#484848" stroke-width="1.5" stroke-linecap="round" stroke-linejoin="round"/>
<path fill-rule="evenodd" clip-rule="evenodd" d="M114.578 203.269V140.464C114.578 131.221 107.136 123.729 97.9577 123.729H71.1585C61.9801 123.729 54.5386 131.221 54.5386 140.467V203.269C54.5386 212.512 61.9801 220 71.1585 220H97.9577C107.136 220 114.578 212.512 114.578 203.269Z" fill="white"/>
<path fill-rule="evenodd" clip-rule="evenodd" d="M114.578 203.269V140.464C114.578 131.221 107.136 123.729 97.9577 123.729H71.1585C61.9801 123.729 54.5386 131.221 54.5386 140.467V203.269C54.5386 212.512 61.9801 220 71.1585 220H97.9577C107.136 220 114.578 212.512 114.578 203.269V203.269Z" stroke="#484848" stroke-width="1.5" stroke-linecap="round" stroke-linejoin="round"/>
<path fill-rule="evenodd" clip-rule="evenodd" d="M68.0657 220H80.7114V123.733H68.0657V220Z" fill="#484848"/>
<path d="M27 110.746H52.8242V84.746" stroke="#484848" stroke-width="1.5" stroke-linecap="round" stroke-linejoin="round"/>
<path d="M52.1075 110.746C38.8063 100.489 30.2284 84.3235 30.2284 66.14C30.2284 35.1353 55.1648 10 85.9285 10C104.04 10 120.134 18.7099 130.307 32.207" stroke="#484848" stroke-width="1.5" stroke-linecap="round" stroke-linejoin="round"/>
</svg>
