<svg width="290" height="230" viewBox="0 0 290 230" fill="none" xmlns="http://www.w3.org/2000/svg">
<rect x="0.5" y="0.5" width="289" height="229" rx="19.5" fill="#F9F9F9" stroke="#AAAAAA"/>
<path fill-rule="evenodd" clip-rule="evenodd" d="M150.894 126.113C177.774 126.113 199.595 104.48 199.595 77.8355C199.595 72.484 198.703 67.3462 197.082 62.5389H104.707C103.086 67.3462 102.194 72.4872 102.194 77.8355C102.194 104.48 124.015 126.113 150.894 126.113Z" fill="#484848"/>
<path fill-rule="evenodd" clip-rule="evenodd" d="M150.894 126.113C177.774 126.113 199.595 104.48 199.595 77.8355C199.595 72.484 198.703 67.3462 197.082 62.5389H104.707C103.086 67.3462 102.194 72.4872 102.194 77.8355C102.194 104.48 124.015 126.113 150.894 126.113Z" stroke="#484848" stroke-width="1.5" stroke-linecap="round" stroke-linejoin="round"/>
<path d="M150.218 77.1511C142.378 77.1511 136.015 70.7499 136.015 62.8716C136.015 54.9901 142.378 48.5922 150.218 48.5922C158.058 48.5922 164.422 54.9901 164.422 62.8716" stroke="white" stroke-width="1.5" stroke-linecap="round" stroke-linejoin="round"/>
<path d="M136.015 91.4312C136.015 99.3159 142.378 105.711 150.218 105.711C158.058 105.711 164.422 99.3159 164.422 91.4312C164.422 83.5496 158.058 77.1517 150.218 77.1517" stroke="white" stroke-width="1.5" stroke-linecap="round" stroke-linejoin="round"/>
<path d="M150.219 39.0718V113.874" stroke="white" stroke-width="1.5" stroke-linecap="round" stroke-linejoin="round"/>
<path fill-rule="evenodd" clip-rule="evenodd" d="M104.502 13.4823C116.063 13.4823 125.453 22.9188 125.453 34.5418C125.453 46.1681 116.063 55.6046 104.502 55.6046C92.9408 55.6046 83.5544 46.1681 83.5544 34.5418C83.5544 22.9188 92.9408 13.4823 104.502 13.4823Z" fill="#484848"/>
<path fill-rule="evenodd" clip-rule="evenodd" d="M104.706 62.5389C111.277 43.572 129.434 29.9211 150.784 29.9211C171.919 29.9211 189.928 43.2999 196.659 61.9688" fill="white"/>
<path d="M104.706 62.5389C111.277 43.572 129.434 29.9211 150.784 29.9211C171.919 29.9211 189.928 43.2999 196.659 61.9688" stroke="#484848" stroke-width="1.5" stroke-linecap="round" stroke-linejoin="round"/>
<path d="M135.918 62.5389C136.283 54.9846 142.501 48.9625 150.106 48.9625C157.456 48.9625 163.51 54.5861 164.239 61.7842" stroke="#484848" stroke-width="1.5" stroke-linecap="round" stroke-linejoin="round"/>
<path d="M150.107 39.4421V62.076" stroke="#484848" stroke-width="1.5" stroke-linecap="round" stroke-linejoin="round"/>
<path fill-rule="evenodd" clip-rule="evenodd" d="M209.531 7.07617C216.172 7.07617 221.56 12.4957 221.56 19.1657C221.56 25.8422 216.172 31.2618 209.531 31.2618C202.893 31.2618 197.506 25.8422 197.506 19.1657C197.506 12.4957 202.893 7.07617 209.531 7.07617Z" fill="white"/>
<path fill-rule="evenodd" clip-rule="evenodd" d="M209.531 7.07617C216.172 7.07617 221.56 12.4957 221.56 19.1657C221.56 25.8422 216.172 31.2618 209.531 31.2618C202.893 31.2618 197.506 25.8422 197.506 19.1657C197.506 12.4957 202.893 7.07617 209.531 7.07617Z" stroke="#484848" stroke-width="1.5" stroke-linecap="round" stroke-linejoin="round"/>
<path d="M50.0311 66.1042C50.0311 94.2258 61.1349 121.194 80.9161 141.078C100.694 160.958 127.522 172.128 155.485 172.128H239.849V63.3475H50.0311" stroke="#484848" stroke-width="1.5" stroke-linecap="round" stroke-linejoin="round"/>
<path fill-rule="evenodd" clip-rule="evenodd" d="M67.6935 185.435C77.4342 185.435 85.3577 193.391 85.3577 203.194C85.3577 212.999 77.4342 220.959 67.6935 220.959C57.9366 220.959 50.0325 212.999 50.0325 203.194C50.0325 193.391 57.9366 185.435 67.6935 185.435Z" fill="#484848"/>
<path fill-rule="evenodd" clip-rule="evenodd" d="M67.6935 185.435C77.4343 185.435 85.3577 193.391 85.3577 203.194C85.3577 212.999 77.4343 220.959 67.6935 220.959C57.9366 220.959 50.0325 212.999 50.0325 203.194C50.0325 193.391 57.9366 185.435 67.6935 185.435Z" stroke="#484848" stroke-width="1.5" stroke-linecap="round" stroke-linejoin="round"/>
<path d="M222.187 185.435C231.928 185.435 239.848 193.391 239.848 203.194C239.848 209.54 236.529 215.115 231.544 218.257" stroke="#484848" stroke-width="1.4" stroke-linecap="round" stroke-linejoin="round"/>
<path fill-rule="evenodd" clip-rule="evenodd" d="M222.186 185.435C231.943 185.435 239.847 193.391 239.847 203.194C239.847 212.999 231.943 220.959 222.186 220.959C212.426 220.959 204.521 212.999 204.521 203.194C204.521 193.391 212.426 185.435 222.186 185.435Z" fill="#484848"/>
<path fill-rule="evenodd" clip-rule="evenodd" d="M222.186 185.435C231.943 185.435 239.847 193.391 239.847 203.194C239.847 212.999 231.943 220.959 222.186 220.959C212.426 220.959 204.521 212.999 204.521 203.194C204.521 193.391 212.426 185.435 222.186 185.435Z" stroke="#484848" stroke-width="1.5" stroke-linecap="round" stroke-linejoin="round"/>
<path d="M67.6934 185.435H226.629C230.126 185.435 233.502 184.032 235.987 181.538C238.468 179.044 239.85 175.658 239.85 172.134V172.131" stroke="#484848" stroke-width="1.5" stroke-linecap="round" stroke-linejoin="round"/>
<path d="M239.849 63.3488C239.849 59.3416 241.441 55.4996 244.257 52.6651C247.074 49.8306 250.902 48.2401 254.887 48.2401H258.896" stroke="#484848" stroke-width="1.5" stroke-linecap="round" stroke-linejoin="round"/>
</svg>
